
<svg version="1.1" xmlns="http://www.w3.org/2000/svg" xmlns:xlink="http://www.w3.org/1999/xlink" x="0px" y="0px" viewBox="0 0 256 256" enable-background="new 0 0 256 256" xml:space="preserve">
<g><g><g><g><path fill="#000000" d="M225.6,184.8l-161-0.3c-13.5,0-24.5-11-24.5-24.5V29c0-8.4-6.7-15.1-15.1-15.1C16.7,13.9,10,20.7,10,29v138.6c0,26,21.1,47.2,47.1,47.2l10.6,0c0.7,15.1,13.3,27.3,28.6,27.3c15.3,0,27.8-12,28.6-27.1l38.8,0.1c0.8,15.1,13.3,27,28.6,27c15.2,0,27.7-11.9,28.6-26.9h4.7h0c8.4,0,15.1-6.8,15.2-15.1C240.8,191.7,234,184.8,225.6,184.8z M96.3,226.9c-7.4,0-13.5-6-13.5-13.5c0-7.4,6-13.5,13.5-13.5c7.4,0,13.5,6,13.5,13.5C109.8,220.9,103.7,226.9,96.3,226.9z M192.3,226.9c-7.4,0-13.5-6-13.5-13.5c0-7.4,6-13.5,13.5-13.5c7.4,0,13.5,6,13.5,13.5C205.8,220.9,199.8,226.9,192.3,226.9z"/><path fill="#000000" d="M162.8,62.3c0.9-1.9,1.4-4,1.4-6.2c0-8-6.5-14.4-14.4-14.4c-8,0-14.4,6.5-14.4,14.4c0,2.2,0.5,4.3,1.4,6.2c-36.5,6.1-64.5,37.2-66.1,74.8h158.3C227.3,99.5,199.3,68.3,162.8,62.3z M86.7,131.8c-2.5,0-4.5-2-4.5-4.5c0-2.5,2-4.5,4.5-4.5s4.5,2,4.5,4.5C91.2,129.8,89.2,131.8,86.7,131.8z M136.3,76.9C136,77,105.6,85.3,94,116.6c-0.6,1.7-2.2,2.7-3.9,2.7c-0.5,0-1-0.1-1.4-0.3c-2.2-0.8-3.3-3.2-2.5-5.4c13.1-35.5,46.6-44.6,48.1-44.9c2.2-0.6,4.5,0.8,5.1,3C139.9,74,138.5,76.3,136.3,76.9z"/><path fill="#000000" d="M65.9,171h167.5c6.9,0,12.6-5.9,12.6-12.8s-5.6-12.8-12.6-12.8H65.9c-6.9,0-12.6,5.8-12.6,12.8C53.4,165.2,59,171,65.9,171z"/></g></g><g></g><g></g><g></g><g></g><g></g><g></g><g></g><g></g><g></g><g></g><g></g><g></g><g></g><g></g><g></g></g></g>
</svg>